<svg xmlns="http://www.w3.org/2000/svg" version="1.1" class="i" x="0" y="0" viewBox="0 0 254.3 253.2" xml:space="preserve" id="email">
  <path fill="#4269E0" d="M254.3 212.3c0 6 0 12 0 18-0.3 3.6 0 7.3-0.7 11-1.4 7.3-6.7 11.9-14.3 11.9-20.5 0-41 0.1-61.5 0-52.3-0.3-104.6-0.6-156.9-1-2.5 0-5-0.1-7.5-0.1-6.7-0.2-11.5-3-13.5-9.7 0.1-1.3 0.2-2.7 0.2-4 0-53.9 0-107.8 0-161.6 0-1.2-0.1-2.3-0.1-3.5 0-13 0-26 0-39 0.4-6.7 0.2-13.3 0.7-20C1.3 6.5 7.8 0.3 16.2 0.3c14.8 0 29.7-0.2 44.5-0.2 58 0 116-0.3 174 0.2 2.2 0 4.3 0.2 6.5 0.3 6.6 0.2 11 3.4 13.1 9.6 0 22.4-0.1 44.8-0.1 67.2 0 19.3 0.1 38.5 0.2 57.8C254.3 160.9 254.3 186.6 254.3 212.3zM232.7 74.4c-35.5 26.3-69 53.1-104 78.4C93.3 126 58 99.4 21.9 72.2c0 42.5 0 83.5 0 124.5 70.5 0 140.5 0 210.8 0C232.7 156 232.7 115.8 232.7 74.4zM230.2 69.6c-67.5 0-134 0-200.5 0-0.1 0.3-0.3 0.7-0.4 1 33.1 24.5 66.2 49.1 99.6 73.8C163 120 195.9 94.8 230.2 69.6z"/>
  <path fill="#FDFDFE" d="M232.7 74.4c0 41.5 0 81.7 0 122.3-70.3 0-140.3 0-210.8 0 0-41 0-82 0-124.5C58 99.4 93.3 126 128.7 152.8 163.6 127.4 197.2 100.7 232.7 74.4z"/>
  <path fill="#FDFDFE" d="M230.2 69.6C195.9 94.8 163 120 128.9 144.4c-33.4-24.8-66.5-49.3-99.6-73.8 0.1-0.3 0.3-0.7 0.4-1C96.2 69.6 162.6 69.6 230.2 69.6z"/>
</svg>
