<svg version="1.1" class="i" id="git" xmlns="http://www.w3.org/2000/svg" xmlns:xlink="http://www.w3.org/1999/xlink" x="0px" y="0px"
	 viewBox="0 0 383 383" enable-background="new 0 0 383 383" xml:space="preserve">
<g>
	<path fill="#EF5034" d="M0,195c0-2.7,0-5.3,0-8c0.3-1,1.3-1.8,0.9-3.1c1.3-4.6,4-8.3,7.4-11.7C45.1,135.5,81.8,98.8,118.6,62
		c1-1,1.8-2.4,3.4-2.8c0.4,0.3,0.9,0.5,1.2,0.8c13.3,13.3,26.6,26.7,40,39.9c1.9,1.9,1.7,3.5,1.1,5.8c-3.6,13.5,1.6,26.4,13.7,33.3
		c2.7,1.6,3.2,3.3,3.2,5.9c0,32.3-0.1,64.6,0,97c0,3-1,4.6-3.6,6.2c-9.7,5.7-14.6,14.5-14.5,25.7c0.1,13.7,10.7,25.9,23.9,28.2
		c13.6,2.3,26.7-4.8,32.1-17.5c5.4-12.8,1.2-27.5-10.4-35.3c-2.7-1.8-3.6-3.6-3.6-6.8c0.1-31.7,0.1-63.3,0.1-95
		c0-1.2-0.4-2.6,0.1-3.3c13.1,13,26.1,26,39.3,39.2c-0.1,0.4-0.5,1.5-0.7,2.7c-4,15.4,4.6,30.8,19.8,35.4
		c14.8,4.5,30.6-3.6,35.8-18.3c7.4-20.7-10.6-42.1-32.3-38.4c-2.7,0.5-5,1.4-7.6-1.3c-12.3-12.7-24.9-25.1-37.4-37.5
		c-1.7-1.7-2.1-3.1-1.6-5.6c4.4-21.3-13-39.1-34.3-35c-2.9,0.6-4.6,0-6.5-1.9c-12.8-12.9-25.7-25.7-38.5-38.6
		c-0.9-0.9-2.2-1.6-2.2-3.3c11.7-11.7,23.4-23.5,35.3-35.3c2.6-2.6,5.9-4.3,9.5-5.3c1.2,0.3,2.1-0.3,3.1-0.9c2.7,0,5.3,0,8,0
		c0.9,0.9,1.9,1.2,3.1,0.9c4.2,1,7.6,3.3,10.6,6.2c3.2,3.1,6.4,6.3,9.6,9.5c51.6,51.6,103.2,103.2,154.8,154.8
		c3.9,3.9,7.6,8,8.9,13.6c-0.3,1.5,0,2.8,1,4c0,2,0,4,0,6c-0.2,1-1.3,1.9-0.8,3.1c-1.2,4.8-3.9,8.7-7.3,12.2
		C320,265.2,265.2,320,210.3,374.8c-3.5,3.5-7.4,6.1-12.2,7.3c-1.2-0.3-2.1,0.3-3.1,0.8c-2,0-4,0-6,0c-1.2-1-2.5-1.2-4-1
		c-4.5-1.2-8.1-3.6-11.3-6.9c-6.2-6.3-12.5-12.5-18.7-18.7c-49-49-98.1-97.9-147.1-146.9c-3.2-3.2-5.8-6.9-6.9-11.4
		C1.2,196.9,0.8,195.9,0,195z"/>
	<path fill="#F59482" d="M382,185c0.3,0,0.7,0,1,0c0,1.3,0,2.7,0,4C382,187.8,381.7,186.5,382,185z"/>
	<path fill="#F59482" d="M185,383c0-0.3,0-0.7,0-1c1.5-0.2,2.8,0,4,1C187.7,383,186.3,383,185,383z"/>
	<path fill="#F8B7AB" d="M183.9,0.9C184,0.6,184,0.3,184,0c1,0,2,0,3,0C186.1,0.6,185.1,1.2,183.9,0.9z"/>
	<path fill="#F59482" d="M198,0c-0.1,0.3-0.1,0.6,0.1,0.9c-1.2,0.3-2.2-0.1-3.1-0.9C196,0,197,0,198,0z"/>
	<path fill="#F8B7AB" d="M0,184c0.3,0,0.6,0,0.9-0.1c0.4,1.2-0.6,2-0.9,3.1C0,186,0,185,0,184z"/>
	<path fill="#F59482" d="M0.9,198.1l-0.5-0.1L0,198c0-1,0-2,0-3C0.8,195.9,1.2,196.9,0.9,198.1z"/>
	<path fill="#F8B7AB" d="M383,198l-0.4,0.2l-0.4-0.1c-0.5-1.2,0.6-2.1,0.8-3.1C383,196,383,197,383,198z"/>
	<path fill="#F8B7AB" d="M198.1,382.2c0,0.3,0,0.5-0.1,0.8c-1,0-2,0-3,0C196,382.5,196.9,381.9,198.1,382.2z"/>
</g>
</svg>
