<svg xmlns="http://www.w3.org/2000/svg" version="1.1" class="i" x="0" y="0" viewBox="0 0 120.1 119.7" xml:space="preserve" id="github">
  <circle fill="#FFFFFF" cx="59.8" cy="59.8" r="59.8"/>
  <path fill="#191718" d="M31.1 94c-1.3-1.2-1.6-4.7-5.3-1.6 3-2.9 1.2-4.9-0.6-5.7 -2.8-1.2-5.2-4.9-9.9-2 5.9 3.3 8.2 8.8 11.4 13.7 2.9 4.4 7.9 5.1 12.9 5.1 1.6 0 3.3-0.4 5.1-0.6 0.8 3.7 0.3 7.4 0.4 11 0 2.7-1.8 3.4-4.1 2.9 -1.3-0.2-2.5-0.8-3.7-1.4C17.2 106.7 5 91.6 0.9 70.1 0.6 65.4 0.3 60.7 0 56c0.3-2 0.6-4.1 0.9-6.1C5.9 20.9 30.7 0 60 0c29.3 0 54.1 20.9 59.1 49.9 0.3 2 0.6 4.1 0.9 6.1 0.2 3.5 0.1 8.4-0.9 14.1 -2.6 14.6-9.7 24.3-11.6 26.6 -6.2 8-14.5 14.2-24.9 18.8 -1.1 0.5-2.1 1-3.3 1.2 -3 0.7-4.4-0.3-4.5-3.4 -0.1-3-0.1-6 0-9 0.1-6.1 0.6-12.3-3.7-17.9 4.1-0.6 7.5-1.3 10.8-2.5 8.1-3 13.3-8.6 15.1-17.2 1.9-8.7 2-17.2-3.9-24.7 -1-1.2-0.6-2.3-0.4-3.7 0.7-4.5 0.7-8.9-1.3-13.3 -4.8-0.8-8.8 1.4-12.6 3.7 -2.6 1.5-4.8 2.1-7.9 1.4 -7.5-1.8-15.2-1.6-22.8 0.1 -2.4 0.5-4 0.2-6-1 -4.1-2.4-8.3-5-13.5-4.3 -2.2 4.3-2.2 8.7-1.4 13.2 0.3 1.8 0.1 3-0.9 4.5C15.1 60 23.6 81 43.6 85.6c1.5 0.3 2.9 0.5 4.8 0.8 -2.2 3-1.9 7.1-5.1 9.4l0.1 0c-1.5 0.1-2.9 0.3-4.4 0.4 -0.7 0-1.3 0-2 0 -2.2-1.6-1.8 2-3.8 1.7 1-2.3 0.2-3.7-2.2-3.9L31.1 94zM43.4 95.8l-0.1 0c0.8 0.4 2 0.7 1.3 2 -0.4 0.8-1.5 0.9-2 0.2C41.6 96.9 42.8 96.4 43.4 95.8zM39 96.8c0.6 0.3 1.1 0.9 0.7 1.5 -0.1 0.3-0.9 0.5-1.2 0.4 -0.7-0.3-0.6-1.1-0.5-1.7C38.3 96.9 38.7 96.9 39 96.8zM31 93.9c0.1 0.9 0.4 2-1.1 1.9 -0.7 0-1.2-0.7-1-1.3 0.4-1.4 1.3-0.8 2.2-0.5L31 93.9zM39 96.8c-0.3 0.1-0.7 0.1-1 0.2 -0.3-0.3-0.7-0.5-1-0.8 0.7 0 1.3 0 2 0C39 96.4 39 96.6 39 96.8z"/>
</svg>
