<svg xmlns="http://www.w3.org/2000/svg" version="1.1" class="i" x="0" y="0" viewBox="0 0 146 182" xml:space="preserve" id="heroku">
  <path fill="#6E6AAA" d="M142.3 92c0 22.3-0.3 44.7 0.1 67 0.3 12.3-8.2 18.9-18.9 18.8 -33.5-0.2-67-0.2-100.5 0 -13.1 0.1-19.2-9-19.2-19.3 0.3-44.3 0.3-88.6 0-132.9C3.9 15.5 9.7 6.2 23 6.2c33.7 0.1 67.3 0.1 101 0 11.1 0 18.6 7.3 18.4 18.3C142 47 142.3 69.5 142.3 92zM9.9 92.1c0 22 0 44 0 66 0 9.7 4.3 13.9 14.1 13.9 32.8 0 65.6 0 98.5 0 9.9 0 14.4-4.5 14.4-14.3 0-43.8 0-87.6 0-131.5 0-9.5-4.6-14.1-14.1-14.1 -33 0-66 0-99 0 -9.7 0-13.9 4.3-13.9 14.1C9.9 48.1 9.9 70.1 9.9 92.1z"/>
  <path fill="#FDFDFD" d="M9.9 92.1c0-22 0-44 0-66 0-9.8 4.2-14.1 13.9-14.1 33 0 66 0 99 0 9.5 0 14.1 4.6 14.1 14.1 0 43.8 0 87.6 0 131.5 0 9.8-4.5 14.3-14.4 14.3 -32.8 0-65.6 0-98.5 0 -9.8 0-14.1-4.2-14.1-13.9C9.9 136.1 9.9 114.1 9.9 92.1zM36.3 91.7c1.7 0.8 2.8-0.1 4-0.5 6.8-2.3 13.5-4.7 20.3-6.8 7.2-2.1 14.5-3.9 22-3.7 6.7 0.2 8.2 1.7 8.2 8.3 0 19.8 0 39.6 0 59.4 0 1.7-0.6 3.6 0.6 5.2 5.8 0 11.6 0 17.7 0 0-6.3 0-12.2 0-18.2 0-16.8 0.1-33.6-0.1-50.4 -0.1-11.7-6-18.1-17.3-20.3 -6.4-1.2-12.6-0.3-18.8 0.6 -5.9 0.8-11.5 3.1-17.9 4.4 0-13.4 0-26.5 0-39.8 -6.6-0.3-12.6-0.4-18.9 0.1C36.3 51 36.3 71.4 36.3 91.7zM81.7 54.1c3.8 0 6.6 0 9.4 0 11.3 0 11.3 0 17.3-9.4 2.9-4.5 5.7-9.2 7.6-14.5 -7.3 0-14.1 0-20.8 0C91.4 38.4 87.2 46.1 81.7 54.1zM36.6 116c0 12.5 0 24.6 0 35.8 5.9-5.9 12-12 17.7-17.8C48.9 128.5 43 122.5 36.6 116z"/>
  <path fill="#6863A6" d="M36.3 91.7c0-20.3 0-40.7 0-61.4 6.2-0.5 12.3-0.4 18.9-0.1 0 13.3 0 26.4 0 39.8 6.4-1.4 12-3.6 17.9-4.4 6.3-0.9 12.4-1.9 18.8-0.6 11.3 2.2 17.2 8.6 17.3 20.3 0.2 16.8 0.1 33.6 0.1 50.4 0 6 0 11.9 0 18.2 -6.1 0-11.9 0-17.7 0 -1.2-1.6-0.6-3.5-0.6-5.2 0-19.8 0-39.6 0-59.4 0-6.6-1.4-8.1-8.2-8.3 -7.6-0.2-14.9 1.5-22 3.7 -6.8 2-13.5 4.5-20.3 6.8C39.1 91.5 38 92.4 36.3 91.7z"/>
  <path fill="#6863A6" d="M81.7 54.1c5.5-8 9.7-15.8 13.6-23.9 6.8 0 13.5 0 20.8 0 -1.9 5.3-4.7 10-7.6 14.5 -6.1 9.4-6.1 9.4-17.3 9.4C88.3 54.1 85.5 54.1 81.7 54.1z"/>
  <path fill="#6E6AAA" d="M36.6 116c6.4 6.5 12.3 12.5 17.7 18 -5.8 5.8-11.9 11.9-17.7 17.8C36.6 140.6 36.6 128.5 36.6 116z"/>
</svg>
