<svg xmlns="http://www.w3.org/2000/svg" version="1.1" class="i" width="78" height="75" x="0" y="0" viewBox="0 0 200 191.3" xml:space="preserve" id="jquery">
  <path fill="#0F6CAE" d="M1.1 98c-0.5-0.2-0.8-0.1-1.1 0.4 0-7.3 0-14.7 0-22 0.3 0 0.7 0.1 1 0.1C1.1 83.6 1.1 90.8 1.1 98zM115 191.3c-5.7 0-11.3 0-17 0 0.4-0.3 0.5-0.6 0.2-1.1 5.6 0 11.1 0 16.7 0C114.9 190.7 115 191 115 191.3zM115 191.3c0-0.3-0.1-0.7-0.1-1 2.4 0 4.7 0 7.1 0.1 0 0.3 0 0.6 0 1C119.7 191.3 117.3 191.3 115 191.3zM1 76.5c-0.3 0-0.7-0.1-1-0.1 0-1 0-2 0-3 0.3 0 0.6 0 0.9 0C0.9 74.3 1 75.4 1 76.5zM198 90c-0.2-1.6 1.1-1.4 2-1.7 0 0.3 0 0.7 0 1 -0.9-0.2-1 1-1.7 1l-0.3 0L198 90zM98.2 190.3c0.2 0.4 0.2 0.8-0.2 1.1 -1 0-2 0-3 0 0-0.3 0-0.6 0-0.9C96.1 190.4 97.2 190.3 98.2 190.3zM98.2 190.3c-1.1 0.1-2.2 0.1-3.3 0.2 -37-3.7-83.6-36.2-93.5-88.5 -0.2-1.3-0.3-2.6-0.4-3.9 0-7.2 0-14.3-0.1-21.5 0-1.1-0.1-2.1-0.1-3.2 2.5-16.6 10.7-30.1 22-42.1 0.3 0.2 0.5 0.4 0.8 0.6 -12.8 36.6-3.9 69 21.3 96.7 30.6 33.6 68.6 45.6 113.2 33.8 12.3-3.3 22.6-10.3 31.8-19 0.4 0.4 0.7 0.7 1.1 1.1 -9.9 18.7-25 31.7-44.4 39.8 -7.9 3.3-16.1 5.3-24.6 6.1 -2.4 0-4.7 0-7.1-0.1C109.4 190.3 103.8 190.3 98.2 190.3zM73.6 16.5c-11 34.6 8.5 67 34.7 82.9 19.4 11.8 40.1 15.7 62.3 9.1 10-3 18.2-8.8 25.4-16.1 0.4 0 0.8 0.1 1.3 0.1 -7.5 16.6-20.1 27.7-37.4 32.8 -29.1 8.5-55.3 2.9-77.6-18.1C66.5 92.3 57.6 74.2 58 52.3c0.2-13.7 5.1-25.6 14-35.9C72.6 16.4 73.1 16.4 73.6 16.5zM117 2.3c-2.6 9.4-2.7 18.6 0.9 27.9 10.9 27.5 38.8 36.2 58 32.3 5.9-1.2 10.8-4 15.4-8.4 -3.5 9-13.6 16.8-24.2 19.1 -27.8 5.9-55.7-13.4-59.6-41.6C106 20.5 109.2 10.6 117 2.3L117 2.3zM73.6 16.5c-0.5-0.1-1.1-0.1-1.6-0.2 0.7-1.8 2-3.3 3.1-4.8l0.3 0.1 0.3 0C75.1 13.2 74.3 14.9 73.6 16.5zM191 144.4c-0.4-0.4-0.7-0.7-1.1-1.1 0.4-0.9 1-1.7 1.9-2.1 0.2 0.2 0.4 0.4 0.6 0.6C192.2 142.8 192 143.8 191 144.4zM197.2 92.4c-0.4 0-0.8-0.1-1.3-0.1 0.4-1 1-1.8 2-2.3l0 0.3 0.3 0C198 91.1 198.1 92 197.2 92.4zM25.2 28.5c0 0.7 0 1.4-0.6 1.8 -0.4 0-0.6-0.2-0.6-0.6 -0.2-0.8 0.1-1.3 0.9-1.6L25.2 28.5zM193 139.8c0-0.6 0-1.3 0.8-0.9 0.5 0.3 0.2 1-0.3 1.4l-0.5-0.1L193 139.8zM118 0.3c0 0.8 0.3 1.8-0.9 2l0 0C116.8 1.4 117.2 0.8 118 0.3L118 0.3zM22.9 31.2c0.1-0.7 0.5-1.2 1.1-1.4 0 0.4 0.1 0.6 0.6 0.6 -0.3 0.5-0.6 1-0.9 1.5C23.4 31.6 23.1 31.4 22.9 31.2zM24.9 28.2c0.2-0.2 0.5-0.6 0.5-0.6 0.6 0.4 0.1 0.6-0.2 0.9C25.2 28.5 24.9 28.2 24.9 28.2zM75.8 11.6c0 0-0.3 0-0.3 0l-0.3-0.1c-0.1-0.7 0.2-1.1 0.8-1.3 0 0 0.1 0.1 0.1 0.1C76 10.8 75.9 11.2 75.8 11.6zM191.9 141.2c0.1-0.7 0.6-1.1 1.1-1.5l0.1 0.5 0.5 0.1c-0.3 0.5-0.7 1-1 1.5C192.3 141.6 192.1 141.5 191.9 141.2zM76 10.3c0.2-0.2 0.4-0.3 0.6-0.5 0.1 0.3-0.1 0.5-0.5 0.6C76.1 10.4 76 10.3 76 10.3zM118 0.4c0.1-0.1 0.2-0.2 0.2-0.4C118.1 0.1 118.1 0.2 118 0.4 118 0.3 118 0.4 118 0.4z"/>
</svg>
