<svg version="1.1" class="i" id="link_in" alt="LinkedIns logo" width="75" height="75" xmlns="http://www.w3.org/2000/svg" xmlns:xlink="http://www.w3.org/1999/xlink" x="0px" y="0px"
	 viewBox="0 0 1025 1025" enable-background="new 0 0 1025 1025" xml:space="preserve">
<g>
	<path fill="#0274B2" d="M1022.2,512.2c0,143.7,0,287.3,0,431c0,13.4-1.8,26.3-8.3,38.1c-14.3,25.7-36.3,40-65.7,40
		c-290.3,0.3-580.6,0.2-870.9,0.1c-39.1,0-72.3-32.4-73.2-71.3c-0.1-4-0.2-8-0.2-12c0-285.8,0-571.6-0.1-857.4
		c0-18.1,4-34.7,15.6-48.9c15-18.4,34.5-28.2,58.2-28.2C367.7,3.5,657.8,3.5,948,3.5c37.5,0,68.6,27.1,73.7,64.3
		c0.6,4.4,0.5,9,0.5,13.5C1022.2,224.9,1022.2,368.6,1022.2,512.2z M871.6,870.4c0.7-2.3,0.4-4.3,0.4-6.2c0-82.8,0-165.6,0-248.5
		c0-25-0.4-49.9-3-74.8c-2.7-25.5-7.5-50.6-17.1-74.6c-16.7-41.5-45.8-69.7-88.8-83c-30.2-9.3-61-11.7-92.2-8.9
		c-27,2.4-52.2,11-75.1,26c-19.3,12.7-35.4,28.6-46.8,48.9c-0.8,1.5-1.5,3.1-4.3,1.7c0-21.6,0-43.5,0-65.4c-48.3,0-96,0-143.7,0
		c0,161.8,0,323.2,0,484.7c50,0,99.8,0,149.5,0c0.8-2,0.4-3.9,0.4-5.7c0-54.8-0.1-109.6,0.1-164.5c0.1-30.1-0.8-60.3,0.5-90.4
		c0.8-19.5,3.7-38.7,11.5-56.9c8.9-20.9,23.5-35.5,45.4-42.4c15.3-4.9,31-5.7,46.9-4c11.8,1.3,22.8,4.9,32.4,11.9
		c14.4,10.3,21.9,25,26.5,41.6c5.4,19.7,6.6,40,6.6,60.3c0.1,81.5,0,163,0,244.5c0,1.9-0.3,3.9,0.5,5.9
		C771.3,870.4,821.3,870.4,871.6,870.4z M155.2,870.1c50.2,0,100.1,0,149.8,0c0-161.8,0-323.2,0-484.7c-50.1,0-99.8,0-149.8,0
		C155.2,547.1,155.2,708.4,155.2,870.1z M318.3,231.6c0.3-48.3-39.1-87.9-87.7-88.1c-48.2-0.2-87.5,38.9-87.7,87.5
		c-0.2,48.1,38.8,87.6,86.8,87.8C278.3,319.1,318.1,280,318.3,231.6z"/>
	<path fill="#FEFEFE" d="M871.6,870.4c-50.3,0-100.2,0-150.5,0c-0.8-1.9-0.5-3.9-0.5-5.9c0-81.5,0-163,0-244.5
		c0-20.3-1.2-40.6-6.6-60.3c-4.5-16.6-12.1-31.3-26.5-41.6c-9.7-6.9-20.6-10.6-32.4-11.9c-15.9-1.7-31.5-0.8-46.9,4
		c-21.9,6.9-36.5,21.6-45.4,42.4c-7.7,18.2-10.6,37.4-11.5,56.9c-1.3,30.1-0.5,60.3-0.5,90.4c-0.1,54.8,0,109.6-0.1,164.5
		c0,1.8,0.4,3.6-0.4,5.7c-49.7,0-99.4,0-149.5,0c0-161.5,0-322.9,0-484.7c47.7,0,95.4,0,143.7,0c0,21.9,0,43.8,0,65.4
		c2.8,1.4,3.5-0.3,4.3-1.7c11.4-20.3,27.5-36.1,46.8-48.9c22.8-15,48-23.6,75.1-26c31.2-2.8,62.1-0.4,92.2,8.9
		c43.1,13.3,72.2,41.5,88.8,83c9.6,23.9,14.4,49,17.1,74.6c2.6,24.9,3,49.8,3,74.8c0,82.8,0,165.6,0,248.5
		C872,866.1,872.3,868.1,871.6,870.4z"/>
	<path fill="#FEFEFE" d="M155.2,870.1c0-161.6,0-323,0-484.7c50,0,99.7,0,149.8,0c0,161.5,0,322.9,0,484.7
		C255.3,870.1,205.5,870.1,155.2,870.1z"/>
	<path fill="#FEFEFE" d="M318.3,231.6c-0.3,48.4-40,87.5-88.6,87.2c-48-0.3-87-39.7-86.8-87.8c0.2-48.5,39.5-87.7,87.7-87.5
		C279.2,143.7,318.6,183.3,318.3,231.6z"/>
</g>
</svg>
