<svg xmlns="http://www.w3.org/2000/svg" version="1.1" class="i" width="73" height="75" x="0" y="0" viewBox="0 0 588.7 599.5" xml:space="preserve">
  <path fill="#010202" stroke="#010202" stroke-width="37.4" d="M445.3 439.5c3.9-32.5 2.8-37.3 27-32l6.2 0.6c18.6 0.8 43-3 57.3-9.6 30.9-14.3 49-38.2 18.7-31.8 -69.3 14.3-74.1-9.2-74.1-9.2 73.2-108.6 103.7-246.3 77.3-280.1 -72.1-92-196.7-48.5-198.8-47.4l-0.7 0.1c-13.6-2.9-29.1-4.5-46.3-4.8 -31.4-0.6-55.1 8.3-73.2 21.9 0 0-222.4-91.6-212 115.2 2.2 43.9 63.1 333 135.7 245.6 26.6-32 52.2-58.8 52.2-58.8 12.7 8.4 28 12.8 43.9 11.2l1.2-1.1c-0.4 4-0.3 7.9 0.6 12.4 -18.7 20.9-13.2 24.5-50.6 32.2 -37.9 7.9-15.6 21.6-1.1 25.3 17.6 4.4 58.3 10.6 85.8-27.8l-1.1 4.4c7.3 5.9 6.9 42.2 7.9 68.2 1.1 25.9 2.8 50.1 8.1 64.5 5.2 14.3 11.6 51 60.6 40.5C411 570.1 442.4 557.4 445.3 439.5"/>
  <path fill="#356892" d="M554.4 366.5c-69.3 14.3-74.1-9.2-74.1-9.2C553.4 248.7 584 110.9 557.7 77.2c-72.1-91.9-196.7-48.4-198.8-47.3l-0.7 0.1c-13.6-2.9-29.1-4.5-46.3-4.8 -31.4-0.6-55.1 8.3-73.2 21.9 0 0-222.4-91.6-212 115.2 2.2 43.9 63.1 333 135.7 245.6 26.6-32 52.2-58.8 52.2-58.8 12.7 8.4 28 12.8 43.9 11.2l1.2-1.1c-0.4 4-0.3 7.9 0.6 12.4 -18.7 20.9-13.2 24.5-50.6 32.2 -37.9 7.9-15.6 21.6-1.1 25.3 17.6 4.4 58.3 10.6 85.8-27.8l-1.1 4.4c7.3 5.9 12.5 38.2 11.6 67.5 -0.8 29.3-1.4 49.5 4.3 65.2 5.8 15.7 11.6 51 60.6 40.5 41.1-8.8 62.4-31.5 65.3-69.7 2.1-27 6.9-23 7.2-47.3l3.9-11.4c4.4-36.6 0.7-48.5 26-43l6.2 0.6c18.6 0.8 43-3 57.3-9.6C566.5 384.1 584.7 360.3 554.4 366.5L554.4 366.5z"/>
  <path fill="none" stroke="#FFFFFF" stroke-width="12.5" stroke-linecap="round" stroke-linejoin="round" d="M297.4 387.6c-1.9 68.2 0.4 136.9 7.2 153.6 6.6 16.7 20.9 49.2 70.1 38.6 41.1-8.8 56.1-25.9 62.5-63.5 4.8-27.7 13.9-104.6 15.2-120.3"/>
  <path fill="none" stroke="#FFFFFF" stroke-width="12.5" stroke-linecap="round" stroke-linejoin="round" d="M238.5 45.6c0 0-222.5-90.9-212.2 115.9 2.2 43.9 63.1 333 135.7 245.6 26.6-32 50.6-56.9 50.6-56.9"/>
  <path fill="none" stroke="#FFFFFF" stroke-width="12.5" stroke-linecap="round" stroke-linejoin="round" d="M358.6 29c-7.7 2.5 123.7-48.1 198.5 47.4 26.5 33.8-4.1 171.5-77.4 280.1"/>
  <path fill="none" stroke="#FFFFFF" stroke-width="12.5" stroke-linecap="round" stroke-linejoin="bevel" d="M479.8 356.6c0 0 4.8 23.4 74.1 9.2 30.3-6.3 12.1 17.6-18.7 32 -25.2 11.7-82 14.7-82.8-1.5C449.9 354.2 482.2 367.1 479.8 356.6c-2.1-9.5-16.5-18.7-26-41.7 -8.3-20.1-114.1-174.7 29.3-151.8 5.2-1.1-37.3-136.4-171.7-138.6 -134.2-2.2-129.8 165-129.8 165"/>
  <path fill="none" stroke="#FFFFFF" stroke-width="12.5" stroke-linecap="round" stroke-linejoin="round" d="M259.8 370.8c-18.7 20.9-13.2 24.7-50.6 32.4 -37.9 7.9-15.6 21.6-1.1 25.3 17.6 4.4 58.3 10.6 85.8-27.8 8.4-11.7 0-30.4-11.6-35.1C276.8 363.1 269.3 360.2 259.8 370.8L259.8 370.8z"/>
  <path fill="none" stroke="#FFFFFF" stroke-width="12.5" stroke-linecap="round" stroke-linejoin="round" d="M258.6 370.5c-1.9-12.3 4-26.9 10.3-43.9 9.5-25.6 31.5-51.4 13.9-132.7 -13.1-60.6-101.1-12.7-101.1-4.4s4 41.7-1.5 80.6c-7.2 50.8 32.4 93.8 77.8 89.4"/>
  <path fill="#FFFFFF" stroke="#FFFFFF" stroke-width="4.2" d="M237.6 188.1c-0.4 2.8 5.1 10.3 12.4 11.3 7.2 1 13.4-4.8 13.8-7.7 0.4-2.8-5.1-5.9-12.4-6.9C244.3 183.8 238.1 185.3 237.6 188.1L237.6 188.1z"/>
  <path fill="#FFFFFF" stroke="#FFFFFF" stroke-width="2.1" d="M457.2 182.4c0.4 2.8-5.1 10.3-12.4 11.3 -7.2 1-13.4-4.8-13.8-7.7 -0.4-2.8 5.1-5.9 12.4-6.9C450.8 178.2 457 179.6 457.2 182.4L457.2 182.4z"/>
  <path fill="none" stroke="#FFFFFF" stroke-width="12.5" stroke-linecap="round" stroke-linejoin="round" d="M483.1 162.9c1.2 22-4.7 37.1-5.5 60.5 -1.1 34 16.3 73.2-9.9 112.1"/>
  <path fill="none" stroke="#FFFFFF" stroke-width="3" stroke-linecap="round" stroke-linejoin="round" d="M0 75.8"/>
</svg>
