<svg version="1.1" class="i" id="sass" xmlns="http://www.w3.org/2000/svg" xmlns:xlink="http://www.w3.org/1999/xlink" x="0px" y="0px"
	 viewBox="0 0 512 384" enable-background="new 0 0 512 384" xml:space="preserve">
<g>
	<path fill="#CC6799" d="M250.1,0.9c19.7,2.1,38.2,7.4,53.9,20.1c10.5,8.6,16.5,19.8,18.1,33.3c2.8,23.5-5.4,43.9-18.6,62.5
		c-20.5,28.8-49,45.8-83,54.1c-14,3.4-28.1,5.6-42.4,5.5c-14,0-27.9-1.3-40.5-8.8c-6.5-3.9-12.1-8.7-16.4-15.1
		c-1.4-2.1-2.2-4.5-2.8-6.9c-0.4-1.5-0.3-3,1.2-4c1.7-1.2,2.8-0.1,3.9,1c15.6,16.3,35.2,17.7,55.9,15.5c21.3-2.3,41.3-8.8,59.9-19.2
		c22.2-12.5,40.7-28.8,51.4-52.7c3.7-8.3,5.5-16.9,4.1-26.2c-1.5-9.6-7-15.9-15.1-20.4c-8-4.4-16.7-6.6-25.6-7.7
		c-28.9-3.5-56.7,2.1-83.6,12.1c-36,13.4-69.3,31.8-98.4,57c-12.6,10.9-23.2,23.4-29.1,39.4c-7.7,20.7-3.6,39.2,10.9,55.6
		c11.3,12.6,24.9,22.6,38.2,32.9c8.5,6.6,17.1,13.2,24.6,21.1c2.4,2.5,4.3,2.3,6.9,0.8c14.2-8,28.5-15.9,42.8-23.7
		c2.9-1.6,5-3.7,7-6.2c9-10.9,19.5-20.1,33-25c3.9-1.4,8-2.4,12.2-1.6c8.4,1.6,13.1,7.8,13.6,17.8c0.2,4.6,0.3,9.3-1,14.4
		c2-0.9,3.4-1.9,5.1-2.4c7-1.9,13.2,3.6,11.8,10.7c-0.9,4.4-2.3,8.7-3.5,13c-3.4,12.3-6.6,24.7-9,37.3c-0.8,4.4-0.8,8.9-0.2,13.8
		c2.7-1,3.3-3.3,4.3-5.3c8-15,14.7-30.6,21.5-46.1c7.5-17,15.4-33.9,22.4-51.2c1.6-4,2.7-8.2,3.5-12.4c0.8-4.1,3-6.4,7.1-7.2
		c6.7-1.4,13.4-2.7,20.2-0.8c5.1,1.4,6.1,3.3,4.5,8.3c-2.3,7.1-4.8,14.1-5.1,21.7c-0.5,11.7,1.4,22.8,7.8,32.8
		c1.8-0.1,2.1-1.6,2.7-2.7c9.3-15.9,18.7-31.9,26.3-48.8c2.7-6.1,3.7-12.7,5.5-19.1c1.1-3.8,3.1-5.9,7-6.8
		c5.9-1.4,11.8-1.8,17.8-1.4c1.3,0.1,2.6,0.5,3.9,1c3.8,1.4,4.7,3.4,3.4,7.3c-3.2,9.5-5.7,19-5.3,29.2c0.5,12.3,5.5,22.8,11.4,33.1
		c2.1,0.3,3.5-1.1,5.1-1.8c22.1-9.1,44.8-11.5,67.8-4.8c22.3,6.5,38.5,19.9,44.1,43.7c0,1,0,2,0,3c0,3.1,0,6.1,0,9.2c0,1,0,2,0,3
		c-2.5,11.7-9.9,19.3-20.3,24.3c-1.5,0.7-3.1,1.1-4.8,1.4c-1.3,0.3-2.3-0.4-2.8-1.6c-0.4-1.1,0.3-1.9,1.2-2.5
		c1.8-1.3,3.6-2.5,5.3-3.8c11.5-8.8,14.5-21,8.3-34.1c-5.6-11.7-15-18.9-26.8-23.3c-18.1-6.8-36.7-7.3-55.5-4.2
		c-5.3,0.9-10.7,2.1-15.5,4.9c0.9,2.9,1.8,5.6,2.5,8.3c2.7,10.5,2.1,20.5-4.7,29.4c-9.6,12.5-22.6,20.1-37.7,23.7
		c-9.9,2.4-16.5-3.8-16.1-14.1c0-1.2,0.2-2.3,0.4-3.5c1.4-7.6,4.4-14.6,8.7-21.1c5.7-8.7,12.7-16.2,21-23.1
		c-7.5-12.2-11.2-25.7-14.2-40.6c-1.4,2.6-2.2,4-2.9,5.5c-6.4,12.6-13.1,25.2-21.3,36.6c-4.7,6.5-7.2,12.4-2.8,19.8
		c0.3,0.6,0.4,1.3,0.6,1.9c5.2,19.2-1.1,35.1-18,45.4c-5.7,3.5-11.8,6.3-18.3,7.9c-6.9,1.7-13.9,3.5-21.1,1.6
		c-6.6-1.7-8.8-6.2-6.1-12.5c1.1-2.5,2.8-4.5,4.5-6.6c9.5-12.4,20.4-23.7,29.6-36.5c1.9-2.6,2.3-4.7,0.7-7.6
		c-5.6-10.5-9.9-21.4-12.3-33.1c-0.4-1.8,0.2-4.1-2-5.7c-2.2,5.1-4.3,10.1-6.4,15.2c-10.9,26.7-24,52.3-38.3,77.4
		c-3.6,6.2-7.8,12-14.3,15.6c-4.7,2.6-9.7,2.3-13.5-1.1c-2.6-2.3-4.1-5.3-4.8-8.6c-1.5-6.5-2.7-13-1.5-19.8c0.4-2,0.2-4.2,0.4-7
		c-1.9,1.9-2.3,3.7-3,5.3c-4.7,10.8-9.4,21.7-16,31.6c-6.8,10.3-22.7,11.5-30.4,0.2c-4-5.8-6.7-12.2-8.7-19
		c-5.1-16.8-3.4-33.5,0.5-50.3c0.7-3.1,2.2-6.1,2.3-9.8c-9.7,5.4-19,10.4-27.8,16.2c1.1,3.1,2.2,5.7,3,8.4c4.3,14.5,3.9,29.2,1,43.9
		c-6.4,32.4-36.1,60.2-68.9,64.6c-1.3,0-2.6,0-4,0c-4.1,0-8.1,0-12.2,0c-1.3,0-2.6,0-4,0c-12-0.8-19.5-7.4-24-18.1
		c-4.1-9.9-3.8-20-1.3-30.3c3.8-15.6,14.3-26.4,26-36.3c12.9-10.9,27.2-19.7,42-27.7c4.5-2.4,8.9-4.8,13.2-7.2
		c-0.6-1.6-1.5-2-2.3-2.6c-11.9-9.5-24.6-17.6-36.9-26.4c-16.4-11.8-32.3-24.1-44.9-40.1C8.6,185,3,174.9,1,163.1
		c0-3.4,0-6.7,0-10.1c0-1.3,0-2.7,0-4c1.9-12.7,7.4-24.1,14.3-34.7c14.9-23,34.9-40.9,57.2-56.4c25.8-17.9,53.8-31.6,83.1-42.8
		c18.5-7.1,37.5-12.2,57.3-14.1c1.7,0,3.3,0,5,0c1.7-0.1,3.6,0.8,5.1-0.9c6,0,12,0,18,0c1.1,1.6,2.7,0.9,4.1,0.9
		C246.7,0.9,248.4,0.9,250.1,0.9z M112.3,274.1c-16.3,9.4-31.8,19.5-45.5,32c-9.8,9-16.8,19.8-18.4,33.3c-1.1,9.8,3.2,16.1,13,15.7
		c2.2-0.1,4.3-0.3,6.4-0.7c24.2-5,53.1-34.9,46.7-72.4C114,279.4,114.3,276.6,112.3,274.1z M176.9,283.8c-0.2,6.4,0.2,12.7,2.6,18.7
		c1.8,4.4,4.3,4.7,7.3,1.1c2.8-3.3,4.7-7.2,6.4-11.2c8-18.6,15.4-37.5,21.4-56.8c1.7-5.4,3.5-10.8,3.6-16.5c0-4.2-1.4-5.4-5.5-4.3
		c-5.4,1.4-9.6,4.7-13,8.8C185.3,241.1,177.3,261.1,176.9,283.8z M361.9,289.6c15.7-3.8,25.7-22.3,18.8-34.7
		C371,261.2,359.7,282,361.9,289.6z M288,306.8c12.4-1.5,25.8-17.6,25.3-30.2C305.6,287.5,296.9,296.5,288,306.8z M212.5,290.5
		c0.1-0.2,0.2-0.5,0.3-0.7c0-0.1-0.2-0.2-0.3-0.3c-0.1,0.2-0.2,0.5-0.3,0.7C212.2,290.3,212.4,290.4,212.5,290.5z"/>
	<path fill="#D990B5" d="M47.9,383.1c4.1,0,8.1,0,12.2,0c-0.1,0.3-0.1,0.6-0.1,0.9c-4,0-8,0-12,0C48,383.7,48,383.4,47.9,383.1z"/>
	<path fill="#D990B5" d="M1,163.1L0.5,163L0,163c0-3.3,0-6.7,0-10c0.3,0,0.6,0,0.9-0.1C0.9,156.3,0.9,159.7,1,163.1z"/>
	<path fill="#D584AC" d="M511.1,280.1c0-3.1,0-6.1,0-9.2c0.3,0,0.6,0.1,0.9,0.1c0,3,0,6,0,9C511.7,280,511.4,280.1,511.1,280.1z"/>
	<path fill="#D990B5" d="M223,0c-1.4,1.7-3.4,0.8-5.1,0.9C218,0.6,218,0.3,218,0C219.7,0,221.3,0,223,0z"/>
	<path fill="#E7B8D0" d="M250.1,0.9c-1.7,0-3.3,0-5,0c0-0.3-0.1-0.6-0.1-0.9c1.7,0,3.3,0,5,0C250,0.3,250,0.6,250.1,0.9z"/>
	<path fill="#EAC4D7" d="M218,0c0,0.3,0,0.6-0.1,0.9c-1.7,0-3.3,0-5,0C213,0.6,213,0.3,213,0C214.7,0,216.3,0,218,0z"/>
	<path fill="#EAC4D7" d="M60,384c0-0.3,0-0.6,0.1-0.9c1.3,0,2.6,0,4,0c-0.1,0.3-0.1,0.6-0.1,0.9C62.7,384,61.3,384,60,384z"/>
	<path fill="#EAC4D7" d="M47.9,383.1c0,0.3,0.1,0.6,0.1,0.9c-1.3,0-2.7,0-4,0c0-0.3,0-0.6,0-0.9C45.3,383.1,46.6,383.1,47.9,383.1z"
		/>
	<path fill="#E7B8D0" d="M0.9,152.9C0.6,153,0.3,153,0,153c0-1.3,0-2.7,0-4c0.3,0,0.6,0,0.9,0C0.9,150.3,0.9,151.6,0.9,152.9z"/>
	<path fill="#D990B5" d="M245,0c0,0.3,0,0.6,0.1,0.9c-1.4-0.1-3,0.6-4.1-0.9C242.3,0,243.7,0,245,0z"/>
	<path fill="#E7B8D0" d="M511.1,280.1c0.3,0,0.6-0.1,0.9-0.1c0,1,0,2,0,3c-0.3,0-0.6,0.1-0.9,0.1
		C511.1,282.1,511.1,281.1,511.1,280.1z"/>
	<path fill="#EAC4D7" d="M512,271c-0.3,0-0.6,0-0.9-0.1c0-1,0-2,0-3c0.3,0,0.6,0,0.9,0.1C512,269,512,270,512,271z"/>
	<path fill="#D990B5" d="M212.5,290.5c-0.1-0.1-0.3-0.2-0.3-0.3c0.1-0.3,0.2-0.5,0.3-0.7c0.1,0.1,0.3,0.2,0.3,0.3
		C212.7,290.1,212.6,290.3,212.5,290.5z"/>
</g>
</svg>
