<svg xmlns:svg="http://www.w3.org/2000/svg" xmlns="http://www.w3.org/2000/svg" version="1.1" width="75" height="75" class="i" id="stackoverflow">
<style>.s0{fill:#919191;}</style><path d="m9.3 36.8 4.4 0-0.2 19.6 29.3 0 0-19.5 4.6 0 0 24.3-38.2 0 0-24.4z" fill="#919191"/>
<rect width="22.9" height="4.9" x="16.5" y="48.4" fill="#919191"/><rect width="23.1" height="5" x="20.7" y="37.8" transform="matrix(0.9953749,0.09606666,-0.09606666,0.9953749,0,0)" fill="#a78b68"/><rect width="23.1" height="5" x="26.5" y="23.4" transform="matrix(0.96240291,0.27162592,-0.27162592,0.96240291,0,0)" fill="#c19653"/><rect width="23.1" height="5" x="30.5" y="3.2" transform="matrix(0.85597805,0.51701216,-0.51701216,0.85597805,0,0)" fill="#d48c28"/><rect width="23.1" height="5" x="27.2" y="-24.5" transform="matrix(0.58242689,0.81288309,-0.81288309,0.58242689,0,0)" fill="#fe8908"/><rect width="23.1" height="5" x="11.2" y="-50.2" transform="matrix(0.16480989,0.98632535,-0.98632535,0.16480989,0,0)" fill="#ff7a15"/>
</svg>
