<svg version="1.1" class="i" id="treehouse" xmlns="http://www.w3.org/2000/svg" xmlns:xlink="http://www.w3.org/1999/xlink" x="0px" y="0px"
	 viewBox="94.7 200.4 408.7 444.5" enable-background="new 94.7 200.4 408.7 444.5" xml:space="preserve">
<g>
	<path fill="#C2D3A8" d="M305.1,644c-0.1,0.3-0.1,0.6-0.1,0.9c-3,0-6,0-9,0c0-0.3,0-0.6-0.1-0.8C299,644,302,644,305.1,644z"/>
	<path fill="#DBE5CE" d="M295.9,644.1c0.1,0.3,0.1,0.6,0.1,0.8c-1,0-2,0-3,0c0-0.3,0-0.6-0.1-0.9C293.9,644,294.9,644,295.9,644.1z"
		/>
	<path fill="#81A54E" d="M295.9,644.1c-1,0-2,0-3,0c-5.9-0.7-11.4-2.4-16.5-5.3c-53.2-30-106.5-59.8-159.5-90.1
		c-14.2-8.1-22-21.2-22-37.9c-0.2-58.8-0.2-117.6,0-176.5c0-16.6,7.7-29.7,22-37.9c40.8-23.5,82-46.4,123-69.5
		c12.2-6.9,24.2-14,36.6-20.5c14.5-7.7,29.4-8,44.1-0.7c8,4,15.7,8.7,23.5,13.2c6.3,3.6,9.2,9.5,10,16.4c1.5,12.2-1.4,23.5-7.3,34.1
		c-7.4,13.2-14.6,26.5-22.6,39.4c-13.8,22.3-33.8,35.8-59.7,40.2c-14.3,2.4-28.5,1.1-42.8-0.4c-5.6-0.6-11.1-1.9-16.9-0.8
		c-11.6,2.3-19.9,10.8-21.5,22.6c-1.4,10.3,4.8,21.4,14.6,26.2c10.1,4.9,21.8,2.9,29.8-5.5c2.6-2.7,5.5-4.2,9-5
		c8.5-1.8,17-3.1,25.7-3.3c2.6-0.1,4.8-0.7,7.1-1.9c8.9-4.9,17.8-9.7,26.8-14.5c0.2,0.3,0.4,0.6,0.6,0.9
		c-21.4,15.8-41.5,33.4-64.4,47.1c-9.4,5.6-18.8,11.2-29.4,14.6c-13.4,4.3-21.2,18.7-18.6,32.2c2.8,14,15.2,24.3,29.2,23.8
		c10.7-0.4,19.1-5.3,24.5-14.7c2.4-4.2,4.6-8.5,7.6-12.3c7.6-9.7,17.9-16.3,27.8-23.3c4.1-2.8,5.7-2.1,9.9,2.6
		c4.2-8.6,8.3-17.1,12.5-25.6c0.9-1.9,1.3-4.1,3.2-5.5l0,0c-0.4,5.5-2.6,10.6-4,15.9c-6.4,22.7-12.2,45.6-19.8,67.9
		c-0.7,2-1.5,4.1-2.3,6.1c-1.1,3-3,5.2-6,6.9c-13,7.2-19.4,22.5-15.6,36.7c4,15.1,17.3,24.8,33.5,24.5c14.1-0.2,26.8-11,30.3-25.3
		c2.1-8.6,0.6-16.5-3.6-24.1c-1.1-2-1.7-3.9-1.3-6.1c2.4-13.1,5.7-26,10-38.6c3.5-10.2,9.2-19.2,18-25.8c2.3-1.7,4.7-3.1,7.7-3.4
		c3.6-0.4,6.4,0.6,8.8,3.5c6.5,8,10.2,16.8,9.5,27.5c-1.3,17.5,11.9,32,29.1,31.8c11.7-0.2,20.8-5.8,26.1-16.4
		c5.2-10.4,4-20.7-2.7-30.1c-3.4-4.8-7.9-8.6-11.8-12.8c-7.5-8-14.4-16.6-21.3-25.2c-16.5-20.5-16.3-48.4-4-67.7
		c8-12.6,15-25.9,22.4-38.9c7.1-12.3,16-22.9,29-29.5c9.2-4.6,18.2-5.4,27.4,0.5c7.1,4.6,14.9,8.2,22.1,12.6
		c14.4,8.8,22.5,21.7,22.6,38.7c0.2,58.7,0.2,117.3,0,176c-0.1,16.8-8,30-22.4,38.2c-42.3,24.3-84.8,48.1-127.3,72.1
		c-10.4,5.9-20.9,11.8-31.3,17.7c-5.3,3-10.9,4.8-17,5.4C302,644,299,644,295.9,644.1z"/>
	<path fill="#D4E0C3" d="M298.9,364.7c0.4-0.2,0.7-0.5,1.1-0.7c0,0,0.3,0.3,0.4,0.5c-0.4,0.1-0.8,0.3-1.2,0.4L298.9,364.7z"/>
	<path fill="#C2D3A8" d="M296.1,366.2c0.5-0.2,1-0.4,1.6-0.6c0.2,0.2,0.4,0.4,0.5,0.5c-0.3,0.6-0.8,1-1.5,0.9
		C296.5,366.7,296.3,366.4,296.1,366.2z"/>
	<path fill="#C2D3A8" d="M299,405.9c-0.1-0.6-0.1-1.2,0.5-1.6C300.2,405,300,405.6,299,405.9L299,405.9z"/>
	<path fill="#C2D3A8" d="M297.7,365.6c0.4-0.3,0.8-0.6,1.3-0.8l0.3,0.2c-0.3,0.4-0.7,0.8-1,1.1C298,365.9,297.8,365.7,297.7,365.6z"
		/>
</g>
</svg>
