<svg xmlns="http://www.w3.org/2000/svg" version="1.1" class="i" alt="Treehouse logo" width="69" height="75" x="0" y="0" viewBox="0 0 595.3 647.4" enable-background="new 0 0 595.3 647.4" xml:space="preserve">
  <path fill="#C3D3A9" d="M306.4 646.1c-0.1 0.4-0.1 0.9-0.1 1.3 -4.4 0-8.7 0-13.1 0 0-0.4 0-0.9-0.1-1.2C297.5 646.1 301.9 646.1 306.4 646.1z"/>
  <path fill="#DBE5CF" d="M293 646.2c0.1 0.4 0.1 0.9 0.1 1.2 -1.5 0-2.9 0-4.4 0 0-0.4 0-0.9-0.1-1.3C290.1 646.1 291.5 646.1 293 646.2z"/>
  <path fill="#82A54E" d="M293 646.2c-1.5 0-2.9 0-4.4 0 -8.6-1-16.6-3.5-24-7.7 -77.5-43.7-155.1-87.1-232.3-131.2 -20.7-11.8-32-30.9-32-55.2 -0.3-85.6-0.3-171.3 0-257.1 0-24.2 11.2-43.3 32-55.2 59.4-34.2 119.4-67.6 179.2-101.2 17.8-10 35.2-20.4 53.3-29.9 21.1-11.2 42.8-11.7 64.2-1 11.7 5.8 22.9 12.7 34.2 19.2 9.2 5.2 13.4 13.8 14.6 23.9 2.2 17.8-2 34.2-10.6 49.7 -10.8 19.2-21.3 38.6-32.9 57.4 -20.1 32.5-49.2 52.1-87 58.6 -20.8 3.5-41.5 1.6-62.3-0.6 -8.2-0.9-16.2-2.8-24.6-1.2 -16.9 3.3-29 15.7-31.3 32.9 -2 15 7 31.2 21.3 38.2 14.7 7.1 31.8 4.2 43.4-8 3.8-3.9 8-6.1 13.1-7.3 12.4-2.6 24.8-4.5 37.4-4.8 3.8-0.1 7-1 10.3-2.8 13-7.1 25.9-14.1 39-21.1 0.3 0.4 0.6 0.9 0.9 1.3 -31.2 23-60.4 48.6-93.8 68.6 -13.7 8.2-27.4 16.3-42.8 21.3 -19.5 6.3-30.9 27.2-27.1 46.9 4.1 20.4 22.1 35.4 42.5 34.7 15.6-0.6 27.8-7.7 35.7-21.4 3.5-6.1 6.7-12.4 11.1-17.9 11.1-14.1 26.1-23.7 40.5-33.9 6-4.1 8.3-3.1 14.4 3.8 6.1-12.5 12.1-24.9 18.2-37.3 1.3-2.8 1.9-6 4.7-8l0 0c-0.6 8-3.8 15.4-5.8 23.2 -9.3 33.1-17.8 66.4-28.8 98.9 -1 2.9-2.2 6-3.3 8.9 -1.6 4.4-4.4 7.6-8.7 10 -18.9 10.5-28.3 32.8-22.7 53.5 5.8 22 25.2 36.1 48.8 35.7 20.5-0.3 39-16 44.1-36.8 3.1-12.5 0.9-24-5.2-35.1 -1.6-2.9-2.5-5.7-1.9-8.9 3.5-19.1 8.3-37.9 14.6-56.2 5.1-14.9 13.4-28 26.2-37.6 3.3-2.5 6.8-4.5 11.2-5 5.2-0.6 9.3 0.9 12.8 5.1 9.5 11.7 14.9 24.5 13.8 40.1 -1.9 25.5 17.3 46.6 42.4 46.3 17-0.3 30.3-8.4 38-23.9 7.6-15.1 5.8-30.1-3.9-43.8 -5-7-11.5-12.5-17.2-18.6 -10.9-11.7-21-24.2-31-36.7 -24-29.9-23.7-70.5-5.8-98.6 11.7-18.4 21.8-37.7 32.6-56.7 10.3-17.9 23.3-33.4 42.2-43 13.4-6.7 26.5-7.9 39.9 0.7 10.3 6.7 21.7 11.9 32.2 18.4 21 12.8 32.8 31.6 32.9 56.4 0.3 85.5 0.3 170.8 0 256.3 -0.1 24.5-11.7 43.7-32.6 55.6 -61.6 35.4-123.5 70.1-185.4 105 -15.1 8.6-30.4 17.2-45.6 25.8 -7.7 4.4-15.9 7-24.8 7.9C301.9 646.1 297.5 646.1 293 646.2z"/>
  <path fill="#D4E0C3" d="M297.3 239.3c0.6-0.3 1-0.7 1.6-1 0 0 0.4 0.4 0.6 0.7 -0.6 0.1-1.2 0.4-1.7 0.6L297.3 239.3z"/>
  <path fill="#C3D3A9" d="M293.3 241.5c0.7-0.3 1.5-0.6 2.3-0.9 0.3 0.3 0.6 0.6 0.7 0.7 -0.4 0.9-1.2 1.5-2.2 1.3C293.9 242.2 293.6 241.8 293.3 241.5z"/>
  <path fill="#C3D3A9" d="M297.5 299.3c-0.1-0.9-0.1-1.7 0.7-2.3C299.2 298 299 298.9 297.5 299.3L297.5 299.3z"/>
  <path fill="#C3D3A9" d="M295.6 240.6c0.6-0.4 1.2-0.9 1.9-1.2l0.4 0.3c-0.4 0.6-1 1.2-1.5 1.6C296 241 295.7 240.7 295.6 240.6z"/>
</svg>
