<svg xmlns="http://www.w3.org/2000/svg" version="1.1" class="i" width="92" height="75" x="0" y="0" viewBox="0 0 594.9 483.5" xml:space="preserve">
  <g transform="translate(-282.32053,-396.30734)">
    <path fill="#2EA9E1" d="M877.3 453.9c-21.9 9.7-45.5 16.3-70.1 19.1 25.3-15.3 44.4-38.9 53.8-67.7 -23.6 13.9-49.6 24.3-77.4 29.5 -22.2-23.6-54.1-38.5-89.2-38.5 -67.3 0-122.2 54.8-122.2 122.2 0 9.7 1 18.7 3.1 27.8 -101.4-5.2-191.6-53.8-251.6-127.7 -10.4 18-16.7 38.9-16.7 61.4 0 42.3 21.5 79.8 54.5 101.7 -20.1-0.7-38.9-6.2-55.2-15.3 0 0.3 0 1 0 1.4 0 59 42 108.6 97.9 119.8 -10.4 2.8-21.2 4.2-32.3 4.2 -8 0-15.6-0.7-22.9-2.1 15.6 48.6 60.7 84 114.2 84.7 -41.7 32.6-94.4 52.4-151.7 52.4 -9.7 0-19.4-0.7-29.2-1.7 54.1 34.7 118.4 54.8 187.1 54.8 224.6 0 347.4-186 347.4-347.4 0-5.2 0-10.4-0.3-16C840.1 500.1 860.9 478.6 877.3 453.9L877.3 453.9z"/>
  </g>
</svg>
