<svg height="80" viewBox="0 0 72 80" width="72" xmlns="http://www.w3.org/2000/svg">
<title>Heroku</title>
<path d="m64.8 0c3.976 0 7.2 3.224 7.2 7.2v65.6c0 3.976-3.224 7.2-7.2 7.2h-57.6c-3.976 0-7.2-3.224-7.2-7.2v-65.6c0-3.976 3.224-7.2 7.2-7.2zm0 4h-57.6c-1.764 0-3.2 1.435-3.2 3.2v65.6c0 1.764 1.436 3.2 3.2 3.2h57.6c1.765 0 3.2-1.436 3.2-3.2v-65.6c0-1.765-1.435-3.2-3.2-3.2zm-45.8 48 9 8-9 8zm8-40v22.711c3.994-1.3 9.577-2.711 15-2.711 4.945 0 7.905 1.944 9.517 3.575 3.297625 3.335 3.478191 7.5452378 3.4833112 8.3409307l-.0000854 24.0840693h-8.0002258v-23.89c-.039-1.867-.938-4.11-5-4.11-7.769791 0-16.4429102 3.7328438-17.2833451 4.1028638l-.0656549.0291362-5.651 2.56v-34.692zm28 0c-.54 4.544-2.382 8.9-6 13h-8c3.144-4.125 5.118-8.466 6-13z" fill="#430098" fill-rule="evenodd"/>
</svg>
