<svg xmlns="http://www.w3.org/2000/svg" width="198" height="70">
<title>Ruby on Rails</title>
<g fill="rgba(153, 14, 76, 0.99)" fill-rule="evenodd">
<path d="M172.3 60.75v9.05h16.35c3.35 0 9.1-2.45 9.3-9.3V57c0-5.85-4.8-9.3-9.3-9.3h-8.15v-4.2h16.15v-9.1h-15.5c-4 0-9.35 3.3-9.35 9.45V47c0 6.15 5.3 9.3 9.35 9.3 11.25.05-2.7 0 7.7 0v4.4"/>
<path d="M84.7 58.55s8.75-.75 8.75-12.05-10.6-12.35-10.6-12.35h-19.1V69.8h9.6v-8.6l8.3 8.6h14.2L84.7 58.55zm-3.7-7.3h-7.65V43.1h7.7s2.15.8 2.15 4.05-2.2 4.1-2.2 4.1zM117.15 34.4h-9.75c-6.95 0-9.3 6.3-9.3 9.3v26.1h9.75v-6.25H117v6.25h9.45V43.7c0-7.6-6.9-9.3-9.3-9.3zM117 53.45h-9.2V44.8s0-1.95 3.05-1.95h3.35c2.7 0 2.75 1.95 2.75 1.95v8.65h.05z" fill-rule="nonzero"/>
<path d="M130.9 34.4h10.15v35.4H130.9zM155.3 60.65V34.4h-10.1v35.4h23.75v-9.15zM3.5 69.8H43s-7.55-34.45 17.45-48.4c5.45-2.65 22.8-12.55 51.2 8.45.9-.75 1.75-1.35 1.75-1.35S87.4 2.55 58.45 5.45C43.9 6.75 26 20 15.5 37.5 5 55 3.5 69.8 3.5 69.8z"/><path d="M3.5 69.8H43s-7.55-34.45 17.45-48.4c5.45-2.65 22.8-12.55 51.2 8.45.9-.75 1.75-1.35 1.75-1.35S87.4 2.55 58.45 5.45C43.9 6.75 26 20 15.5 37.5 5 55 3.5 69.8 3.5 69.8z"/>
<path d="M3.5 69.8H43s-7.55-34.45 17.45-48.4c5.45-2.65 22.8-12.55 51.2 8.45.9-.75 1.75-1.35 1.75-1.35S87.4 2.55 58.45 5.45c-14.6 1.3-32.5 14.55-43 32.05C4.95 55 3.5 69.8 3.5 69.8zM85.8 8.25L86 4.9c-.45-.25-1.7-.85-4.85-1.75l-.2 3.3C82.6 7 84.2 7.6 85.8 8.25z"/>
<path d="M81.05 18.85l-.2 3.15c1.65.05 3.3.25 4.95.6l.2-3.1c-1.7-.35-3.35-.55-4.95-.65zM62.55 3.25h.5l-1-3.05c-1.55 0-3.15.1-4.8.3l.95 2.95c1.45-.15 2.9-.2 4.35-.2zM64.95 21.65l1.15 3.45c1.45-.7 2.9-1.3 4.35-1.75l-1.1-3.3c-1.7.5-3.15 1.05-4.4 1.6zM42.25 8.5L40 5.05c-1.25.65-2.55 1.35-3.9 2.15l2.3 3.5c1.3-.8 2.55-1.55 3.85-2.2zM52.5 31l2.4 3.6c.85-1.25 1.85-2.4 2.95-3.55l-2.25-3.4c-1.15 1.05-2.2 2.2-3.1 3.35zM45.25 47.1l4.05 3.2c.2-1.95.55-3.9 1.05-5.85l-3.6-2.85c-.65 1.85-1.1 3.7-1.5 5.5zM23.35 23.35l-3.55-3.1c-1.3 1.25-2.55 2.5-3.7 3.75l3.85 3.3c1.05-1.35 2.2-2.7 3.4-3.95zM8.25 45.7L2.5 43.6c-.95 2.15-2 4.65-2.5 6l5.75 2.1c.65-1.7 1.7-4.15 2.5-6zM44.5 59.8c.1 2.65.35 4.8.6 6.3l6 2.15c-.45-1.95-.9-4.15-1.2-6.5l-5.4-1.95z"/>
</g>
</svg>
